<?xml version="1.0" encoding="UTF-8" standalone="no"?>
<!-- Created with Inkscape (http://www.inkscape.org/) -->

<svg
   width="11.79652mm"
   height="13.487979mm"
   viewBox="0 0 11.79652 13.487979"
   version="1.1"
   id="svg5"
   xml:space="preserve"
   inkscape:version="1.2.2 (732a01da63, 2022-12-09)"
   sodipodi:docname="bash.svg"
   xmlns:inkscape="http://www.inkscape.org/namespaces/inkscape"
   xmlns:sodipodi="http://sodipodi.sourceforge.net/DTD/sodipodi-0.dtd"
   xmlns="http://www.w3.org/2000/svg"
   xmlns:svg="http://www.w3.org/2000/svg"><sodipodi:namedview
     id="namedview7"
     pagecolor="#ffffff"
     bordercolor="#000000"
     borderopacity="0.25"
     inkscape:showpageshadow="2"
     inkscape:pageopacity="0.0"
     inkscape:pagecheckerboard="0"
     inkscape:deskcolor="#d1d1d1"
     inkscape:document-units="mm"
     showgrid="false"
     inkscape:zoom="0.38083965"
     inkscape:cx="-651.19271"
     inkscape:cy="-207.43639"
     inkscape:window-width="1920"
     inkscape:window-height="1009"
     inkscape:window-x="-8"
     inkscape:window-y="-8"
     inkscape:window-maximized="1"
     inkscape:current-layer="layer1" /><defs
     id="defs2"><style
       id="style5846">.cls-1{fill:#1b1b1f;}</style></defs><g
     inkscape:label="Layer 1"
     inkscape:groupmode="layer"
     id="layer1"
     transform="translate(-577.25805,47.813314)"><path
       class="cls-1"
       d="m 588.24103,-45.060961 -4.25934,-2.528234 a 1.6046851,1.6046851 0 0 0 -1.63591,0 l -4.25933,2.528234 a 1.6983784,1.6983784 0 0 0 -0.82837,1.463404 v 5.056467 a 1.6983784,1.6983784 0 0 0 0.82093,1.463401 l 4.25934,2.528236 a 1.6046851,1.6046851 0 0 0 1.63591,0 l 4.25933,-2.528236 a 1.6983784,1.6983784 0 0 0 0.82093,-1.463401 v -5.056467 a 1.6983784,1.6983784 0 0 0 -0.81349,-1.463404 z m -3.29861,7.895524 v 0.36288 a 0.13384769,0.13384769 0 0 1 -0.0625,0.111541 l -0.21564,0.123435 c -0.0342,0.01787 -0.0625,0 -0.0625,-0.04761 v -0.356927 a 0.70046956,0.70046956 0 0 1 -0.49077,0.04761 0.06543665,0.06543665 0 0 1 -0.0238,-0.08031 l 0.0773,-0.328665 a 0.13682208,0.13682208 0 0 1 0.0431,-0.07138 0.0862574,0.0862574 0 0 1 0.0208,-0.0149 0.0431287,0.0431287 0 0 1 0.0342,0 0.59487859,0.59487859 0 0 0 0.44616,-0.05652 0.59487859,0.59487859 0 0 0 0.33314,-0.510108 c 0,-0.18441 -0.10114,-0.261743 -0.34503,-0.263232 -0.30934,0 -0.59488,-0.05949 -0.60232,-0.516055 a 1.3221177,1.3221177 0 0 1 0.4997,-1.011296 v -0.367337 a 0.13236049,0.13236049 0 0 1 0.0625,-0.113025 l 0.20821,-0.132361 c 0.0342,-0.01782 0.0625,0 0.0625,0.04907 v 0.367337 a 0.67816161,0.67816161 0 0 1 0.40749,-0.04907 0.06543665,0.06543665 0 0 1 0.0268,0.08477 l -0.0729,0.325698 a 0.13979647,0.13979647 0 0 1 -0.0371,0.06543 0.0862574,0.0862574 0 0 1 -0.0208,0.01636 0.04907749,0.04907749 0 0 1 -0.0312,0 0.53985234,0.53985234 0 0 0 -0.39262,0.06395 0.49374925,0.49374925 0 0 0 -0.29744,0.437239 c 0,0.166564 0.0878,0.21713 0.38221,0.223077 0.39411,0 0.56365,0.178463 0.56811,0.574062 a 1.4098623,1.4098623 0 0 1 -0.51754,1.066319 z m 2.2308,-0.611234 a 0.0847702,0.0847702 0 0 1 -0.0327,0.0818 l -1.07673,0.654363 a 0.03123113,0.03123113 0 0 1 -0.0506,-0.03125 v -0.278105 a 0.07733422,0.07733422 0 0 1 0.0491,-0.06841 l 1.06037,-0.635038 a 0.03123113,0.03123113 0 0 1 0.0506,0.03125 z m 0.7436,-6.217969 -4.0303,2.489565 c -0.50268,0.297441 -0.87299,0.623138 -0.87299,1.228425 v 4.964261 c 0,0.36288 0.14872,0.594882 0.3718,0.666268 a 1.3042713,1.3042713 0 0 1 -0.22308,0.02231 1.3191433,1.3191433 0 0 1 -0.67221,-0.1859 l -4.25934,-2.528236 a 1.4009391,1.4009391 0 0 1 -0.67518,-1.203143 v -5.056466 a 1.4009391,1.4009391 0 0 1 0.67518,-1.204631 l 4.25934,-2.528234 a 1.3131945,1.3131945 0 0 1 1.33847,0 l 4.25934,2.528234 a 1.3920159,1.3920159 0 0 1 0.65436,0.974112 c -0.13831,-0.300409 -0.45657,-0.383694 -0.82688,-0.166564 z"
       id="path5852-9"
       style="fill:#1b1b1f;stroke-width:0.148719" /><g
       id="g13219"
       transform="matrix(1.3128751,0,0,1.3128751,156.39222,148.15302)"
       style="fill:#00ff00;fill-opacity:1"><path
         d="m 11.622,24.74 c 0,0 -1.23,0.748 0.855,0.962 2.51,0.32 3.847,0.267 6.625,-0.267 a 10.02,10.02 0 0 0 1.763,0.855 c -6.25,2.672 -14.16,-0.16 -9.244,-1.55 z m -0.8,-3.473 c 0,0 -1.336,1.015 0.748,1.23 2.725,0.267 4.862,0.32 8.55,-0.427 a 3.26,3.26 0 0 0 1.282,0.801 c -7.534,2.244 -15.976,0.214 -10.58,-1.603 z m 14.747,6.09 c 0,0 0.908,0.748 -1.015,1.336 -3.58,1.07 -15.014,1.39 -18.22,0 -1.122,-0.48 1.015,-1.175 1.7,-1.282 0.695,-0.16 1.07,-0.16 1.07,-0.16 -1.23,-0.855 -8.175,1.763 -3.526,2.51 12.77,2.084 23.296,-0.908 19.983,-2.404 z M 12.2,17.633 c 0,0 -5.824,1.39 -2.084,1.87 1.603,0.214 4.755,0.16 7.694,-0.053 2.404,-0.214 4.81,-0.64 4.81,-0.64 0,0 -0.855,0.374 -1.443,0.748 -5.93,1.55 -17.312,0.855 -14.052,-0.748 2.778,-1.336 5.076,-1.175 5.076,-1.175 z m 10.42,5.824 c 5.984,-3.1 3.206,-6.09 1.282,-5.717 -0.48,0.107 -0.695,0.214 -0.695,0.214 0,0 0.16,-0.32 0.534,-0.427 3.794,-1.336 6.786,4.007 -1.23,6.09 0,0 0.053,-0.053 0.107,-0.16 z m -9.83,8.442 c 5.77,0.374 14.587,-0.214 14.8,-2.94 0,0 -0.427,1.07 -4.755,1.87 -4.916,0.908 -11.007,0.8 -14.587,0.214 0,0 0.748,0.64 4.542,0.855 z"
         fill="#4e7896"
         id="path13207"
         style="fill:#00ff00;fill-opacity:1" /><path
         d="m 18.996,0.001 c 0,0 3.313,3.366 -3.152,8.442 -5.183,4.114 -1.175,6.465 0,9.137 -3.046,-2.725 -5.236,-5.13 -3.74,-7.373 2.19,-3.314 8.228,-4.907 6.892,-10.206 z m -1.7,15.335 c 1.55,1.763 -0.427,3.366 -0.427,3.366 0,0 3.954,-2.03 2.137,-4.542 -1.656,-2.404 -2.94,-3.58 4.007,-7.587 0,0 -10.953,2.725 -5.717,8.763 z"
         fill="#f58219"
         id="path13209"
         style="fill:#00ff00;fill-opacity:1" /></g></g></svg>
