<?xml version="1.0" encoding="UTF-8" standalone="no"?>
<!-- Created with Inkscape (http://www.inkscape.org/) -->

<svg
   width="119.32708mm"
   height="135.46666mm"
   viewBox="0 0 119.32708 135.46666"
   version="1.1"
   id="svg5"
   xml:space="preserve"
   inkscape:version="1.2.2 (732a01da63, 2022-12-09)"
   sodipodi:docname="css3.svg"
   xmlns:inkscape="http://www.inkscape.org/namespaces/inkscape"
   xmlns:sodipodi="http://sodipodi.sourceforge.net/DTD/sodipodi-0.dtd"
   xmlns="http://www.w3.org/2000/svg"
   xmlns:svg="http://www.w3.org/2000/svg"><sodipodi:namedview
     id="namedview7"
     pagecolor="#ffffff"
     bordercolor="#000000"
     borderopacity="0.25"
     inkscape:showpageshadow="2"
     inkscape:pageopacity="0.0"
     inkscape:pagecheckerboard="0"
     inkscape:deskcolor="#d1d1d1"
     inkscape:document-units="mm"
     showgrid="false"
     inkscape:zoom="0.36925856"
     inkscape:cx="318.20522"
     inkscape:cy="395.38691"
     inkscape:window-width="1920"
     inkscape:window-height="1009"
     inkscape:window-x="-8"
     inkscape:window-y="-8"
     inkscape:window-maximized="1"
     inkscape:current-layer="g1233" /><defs
     id="defs2" /><g
     inkscape:label="Layer 1"
     inkscape:groupmode="layer"
     id="layer1"
     transform="translate(221.18679,-85.534787)"><g
       id="g144"
       transform="matrix(0.26458333,0,0,0.26458333,-188.52626,63.749181)"><g
         id="g1233"
         transform="translate(-722.85022,92.076388)"><g
           id="g10809"
           transform="translate(569.40886,-9.737088)"><path
             fill="#264de4"
             d="M 72,460 30,0 h 451 l -41,460 -184,52"
             id="path10791"
             style="fill:#0d0d0d;fill-opacity:1" /><path
             fill="#2965f1"
             d="M 256,37 V 472 L 405,431 440,37"
             id="path10793"
             style="fill:#1a1a1a;fill-opacity:1" /><path
             fill="#ebebeb"
             d="m 114,94 h 142 v 56 H 119 m 5,58 h 132 v 57 H 129 m 3,28 h 56 l 4,45 64,17 v 59 L 139,382"
             id="path10795" /><path
             fill="#ffffff"
             d="m 256,208 v 57 h 69 l -7,73 -62,17 v 59 L 371,382 397,94 H 256 v 56 h 80 l -5.5,58 z"
             id="path10797" /></g></g></g></g></svg>
