<?xml version="1.0" encoding="UTF-8" standalone="no"?>
<!-- Created with Inkscape (http://www.inkscape.org/) -->

<svg
   width="119.32708mm"
   height="135.46666mm"
   viewBox="0 0 119.32708 135.46666"
   version="1.1"
   id="svg5"
   xml:space="preserve"
   inkscape:version="1.2.2 (732a01da63, 2022-12-09)"
   sodipodi:docname="html5.svg"
   xmlns:inkscape="http://www.inkscape.org/namespaces/inkscape"
   xmlns:sodipodi="http://sodipodi.sourceforge.net/DTD/sodipodi-0.dtd"
   xmlns="http://www.w3.org/2000/svg"
   xmlns:svg="http://www.w3.org/2000/svg"><sodipodi:namedview
     id="namedview7"
     pagecolor="#ffffff"
     bordercolor="#000000"
     borderopacity="0.25"
     inkscape:showpageshadow="2"
     inkscape:pageopacity="0.0"
     inkscape:pagecheckerboard="0"
     inkscape:deskcolor="#d1d1d1"
     inkscape:document-units="mm"
     showgrid="false"
     inkscape:zoom="0.26110523"
     inkscape:cx="396.39191"
     inkscape:cy="402.13672"
     inkscape:window-width="1920"
     inkscape:window-height="1009"
     inkscape:window-x="-8"
     inkscape:window-y="-8"
     inkscape:window-maximized="1"
     inkscape:current-layer="g1233" /><defs
     id="defs2" /><g
     inkscape:label="Layer 1"
     inkscape:groupmode="layer"
     id="layer1"
     transform="translate(360.13409,-81.32235)"><g
       id="g144"
       transform="matrix(0.26458333,0,0,0.26458333,-188.52626,63.749181)"><g
         id="g1233"
         transform="translate(-722.85022,92.076388)"><g
           id="g9180"
           transform="translate(44.253673,-25.65811)"><path
             fill="#e34f26"
             d="M 71,460 30,0 h 451 l -41,460 -185,52"
             id="path9162"
             style="fill:#0d0d0d;fill-opacity:1" /><path
             fill="#ef652a"
             d="M 256,472 405,431 440,37 H 256"
             id="path9164"
             style="fill:#1a1a1a" /><path
             fill="#ebebeb"
             d="m 256,208 h -75 l -5,-58 h 80 V 94 H 114 l 15,171 h 127 z m -1,147 -63,-17 -4,-45 h -56 l 7,89 116,32 z"
             id="path9166" /><path
             fill="#ffffff"
             d="m 255,208 v 57 h 70 l -7,73 -63,17 v 59 l 116,-32 16,-174 z m 0,-114 v 56 h 137 l 5,-56 z"
             id="path9168" /></g></g></g></g></svg>
