<?xml version="1.0" encoding="UTF-8" standalone="no"?>
<!-- Created with Inkscape (http://www.inkscape.org/) -->

<svg
   width="68.145836mm"
   height="68.145836mm"
   viewBox="0 0 68.145836 68.145836"
   version="1.1"
   id="svg5"
   xml:space="preserve"
   inkscape:version="1.2.2 (732a01da63, 2022-12-09)"
   sodipodi:docname="javascript.svg"
   xmlns:inkscape="http://www.inkscape.org/namespaces/inkscape"
   xmlns:sodipodi="http://sodipodi.sourceforge.net/DTD/sodipodi-0.dtd"
   xmlns="http://www.w3.org/2000/svg"
   xmlns:svg="http://www.w3.org/2000/svg"><sodipodi:namedview
     id="namedview7"
     pagecolor="#ffffff"
     bordercolor="#000000"
     borderopacity="0.25"
     inkscape:showpageshadow="2"
     inkscape:pageopacity="0.0"
     inkscape:pagecheckerboard="0"
     inkscape:deskcolor="#d1d1d1"
     inkscape:document-units="mm"
     showgrid="false"
     inkscape:zoom="0.76167929"
     inkscape:cx="-87.963531"
     inkscape:cy="203.49772"
     inkscape:window-width="1920"
     inkscape:window-height="1009"
     inkscape:window-x="-8"
     inkscape:window-y="-8"
     inkscape:window-maximized="1"
     inkscape:current-layer="g138" /><defs
     id="defs2" /><g
     inkscape:label="Layer 1"
     inkscape:groupmode="layer"
     id="layer1"
     transform="translate(-349.46881,31.260603)"><g
       transform="matrix(0.004801,0,0,-0.004801,370.28136,39.975922)"
       fill="#000000"
       stroke="none"
       id="g138"
       inkscape:label="logo"><rect
         style="fill:none;stroke:#000000;stroke-width:2;stroke-dasharray:none"
         id="rect383"
         width="66.145836"
         height="66.145836"
         x="350.46881"
         y="-30.260603"
         transform="matrix(208.28994,0,0,-208.28994,-77125.882,8326.5824)"
         inkscape:label="bg" /><path
         d="M 6037.6574,8269.9732 C 5548.3382,8231.1384 5137.9832,8055.087 4832.4823,7752.1751 4517.92,7440.2018 4367.7585,7059.6202 4367.7585,6576.7735 c 0,-722.3284 296.4394,-1227.1815 957.9265,-1627.1806 168.2844,-100.9706 397.4101,-211.0027 793.5256,-381.876 539.8045,-231.7147 740.4513,-341.7468 868.6063,-478.9633 157.9284,-169.5789 201.9413,-440.1284 102.2651,-647.2476 -19.4174,-40.1294 -69.9027,-107.4431 -115.2101,-152.7504 -152.7504,-154.045 -393.5265,-235.5982 -692.5549,-235.5982 -504.8531,0 -881.5513,207.1193 -1184.4631,655.0146 -41.4239,59.5468 -78.9643,108.7376 -84.1422,108.7376 -11.6505,0 -996.7614,-568.2834 -1017.4733,-587.7008 -12.9449,-11.6505 -2.589,-38.8349 47.8963,-121.6826 393.5266,-662.7815 1008.4118,-1051.1301 1839.4778,-1162.4567 217.4752,-29.7734 625.2412,-28.4789 833.6549,0 522.9761,73.7862 915.2081,247.2486 1219.4145,542.3935 323.6238,311.9734 482.8467,715.8559 482.8467,1222.0035 0,323.6238 -53.0743,576.0504 -173.4623,825.888 -82.8477,170.8733 -165.6954,286.0834 -308.0899,431.0669 -273.1385,277.022 -626.5357,486.7302 -1332.0356,789.6421 -533.332,229.1256 -711.9724,327.5073 -829.7714,453.0733 -112.6211,120.3881 -160.5175,261.488 -150.1615,437.5394 9.0615,139.8055 47.8963,234.3036 133.333,326.2128 122.9771,133.333 265.3715,188.9963 485.4357,187.7018 249.8376,0 411.6495,-64.7248 576.0504,-230.4201 58.2523,-56.9578 133.333,-148.867 168.2844,-204.5303 40.1293,-63.4303 69.9027,-98.3816 80.2587,-94.4981 33.6569,14.2394 974.7549,622.6522 974.7549,631.7136 0,5.178 -47.8963,80.2587 -106.1486,168.2844 -124.2715,186.4073 -348.2192,419.4165 -502.2642,521.6816 -284.7889,188.9963 -588.9953,286.0834 -990.2888,315.8568 -196.7633,15.534 -222.6532,15.534 -407.766,1.2945 z"
         id="path134"
         style="stroke-width:1.2945"
         inkscape:label="s" /><path
         d="m 2007.8937,5917.8754 -3.8835,-2288.6676 -28.4789,-107.4431 c -37.5403,-141.1 -81.5532,-225.2422 -159.2229,-302.9119 -108.7376,-108.7376 -248.5431,-154.0449 -481.5522,-155.3394 -332.6853,-1.2945 -532.03754,139.8055 -763.75219,535.921 -37.54036,62.1358 -71.19723,112.6211 -75.08072,111.3266 -5.17798,-2.589 -239.48162,-143.689 -520.38715,-313.2678 l -511.32562,-310.6789 38.83486,-77.6697 c 231.71465,-462.1348 633.00823,-811.6485 1115.85496,-972.1659 510.03116,-169.5789 1165.04566,-154.045 1645.30346,38.8348 576.0504,233.0092 913.9136,714.5614 1003.2338,1430.4173 7.767,72.4917 12.9449,881.5512 12.9449,2403.8776 v 2295.1401 h -634.3026 -633.0082 z"
         id="path136"
         style="stroke-width:1.2945"
         inkscape:label="j" /></g></g></svg>
