<?xml version="1.0" encoding="UTF-8" standalone="no"?>
<!-- Created with Inkscape (http://www.inkscape.org/) -->

<svg
   width="250.42316mm"
   height="250.42258mm"
   viewBox="0 0 250.42316 250.42258"
   version="1.1"
   id="svg5"
   xml:space="preserve"
   inkscape:version="1.2.2 (732a01da63, 2022-12-09)"
   sodipodi:docname="lua.svg"
   xmlns:inkscape="http://www.inkscape.org/namespaces/inkscape"
   xmlns:sodipodi="http://sodipodi.sourceforge.net/DTD/sodipodi-0.dtd"
   xmlns="http://www.w3.org/2000/svg"
   xmlns:svg="http://www.w3.org/2000/svg"><sodipodi:namedview
     id="namedview7"
     pagecolor="#ffffff"
     bordercolor="#000000"
     borderopacity="0.25"
     inkscape:showpageshadow="2"
     inkscape:pageopacity="0.0"
     inkscape:pagecheckerboard="0"
     inkscape:deskcolor="#d1d1d1"
     inkscape:document-units="mm"
     showgrid="false"
     inkscape:zoom="0.52221046"
     inkscape:cx="89.044559"
     inkscape:cy="329.36912"
     inkscape:window-width="1920"
     inkscape:window-height="1009"
     inkscape:window-x="-8"
     inkscape:window-y="-8"
     inkscape:window-maximized="1"
     inkscape:current-layer="g1233" /><defs
     id="defs2" /><g
     inkscape:label="Layer 1"
     inkscape:groupmode="layer"
     id="layer1"
     transform="translate(266.53645,1.5913902)"><g
       id="g144"
       transform="matrix(0.26458333,0,0,0.26458333,-188.52626,63.749181)"><g
         id="g1233"
         transform="translate(-722.85022,92.076388)"><g
           id="g6204"
           transform="translate(427.74807,-339.29627)">
	<path
   fill="#000080"
   d="m 835.5,473.6 c 0,-199.8 -162.2,-362 -362,-362 -199.8,0 -362,162.2 -362,362 0,199.8 162.2,362 362,362 199.8,0 362,-162.2 362,-362"
   id="path6188"
   style="fill:#0d0d0d;fill-opacity:1" />
	<path
   fill="#ffffff"
   d="m 729.5,323.6 c 0,-58.5 -47.5,-106 -106,-106 -58.5,0 -106,47.5 -106,106 0,58.5 47.5,106 106,106 58.5,0 106,-47.5 106,-106"
   id="path6190" />
	<path
   fill="#000080"
   d="m 941.5,111.5 c 0,-58.5 -47.5,-106 -106,-106 -58.5,0 -106,47.5 -106,106 0,58.5 47.5,106 106,106 58.5,0 106,-47.4 106,-106"
   id="path6192"
   style="fill:#0d0d0d;fill-opacity:1" />
	<g
   id="g6200">
		<path
   fill="#ffffff"
   d="m 258.1,627.8 h 117.3 v 26.7 H 227.8 V 417 h 30.3 z"
   id="path6194" />
		<path
   fill="#ffffff"
   d="m 515.5,654.5 v -23.8 c -16,22.5 -31.9,31.3 -57,31.3 -33.2,0 -54.4,-18.2 -54.4,-46.6 V 483.8 h 27 v 120.9 c 0,20.5 13.7,33.6 35.2,33.6 28.3,0 46.6,-22.8 46.6,-57.7 v -96.8 h 27 v 170.7 z"
   id="path6196" />
		<path
   fill="#ffffff"
   d="m 738.4,659.1 c -8.8,2.3 -13,2.9 -18.6,2.9 -17.6,0 -26.1,-7.8 -28,-25.1 -19.2,17.6 -36.5,25.1 -58,25.1 -34.5,0 -56,-19.5 -56,-50.5 0,-22.2 10.1,-37.5 30,-45.6 10.4,-4.2 16.3,-5.5 54.7,-10.4 21.5,-2.6 28.3,-7.5 28.3,-18.9 v -7.2 c 0,-16.3 -13.7,-25.4 -38.1,-25.4 -25.4,0 -37.8,9.4 -40.1,30.3 h -27.4 c 0.7,-16.9 3.9,-26.7 11.7,-35.5 11.4,-12.7 31.9,-19.9 56.7,-19.9 42,0 64.2,16.3 64.2,46.6 v 100.4 c 0,8.5 5.2,13.4 14.7,13.4 1.6,0 2.9,0 5.9,-0.7 z m -47.6,-89 c -9.1,4.2 -15,5.5 -43.7,9.4 -29,4.2 -41.1,13.4 -41.1,31.3 0,17.3 12.4,27.4 33.6,27.4 16,0 29.3,-5.2 40.4,-15.3 8.1,-7.5 10.8,-13 10.8,-22.2 z"
   id="path6198" />
	</g>
	<path
   fill="none"
   stroke="#808080"
   stroke-width="10.8612"
   stroke-miterlimit="10"
   stroke-dasharray="40.8475"
   d="m 890.6,261 c 33.5,65.8 51,138.6 51,212.5 0,258.4 -209.7,468.1 -468.1,468.1 C 215.1,941.6 5.4,731.9 5.4,473.5 5.4,215.1 215.1,5.4 473.5,5.4 c 83.1,0 164.6,22.1 236.2,63.9"
   id="path6202" />
</g></g></g></g></svg>
