<?xml version="1.0" encoding="UTF-8" standalone="no"?>
<!-- Created with Inkscape (http://www.inkscape.org/) -->

<svg
   width="31.9515mm"
   height="24.283598mm"
   viewBox="0 0 31.9515 24.283598"
   version="1.1"
   id="svg5"
   xml:space="preserve"
   inkscape:version="1.2.2 (732a01da63, 2022-12-09)"
   sodipodi:docname="powershell.svg"
   xmlns:inkscape="http://www.inkscape.org/namespaces/inkscape"
   xmlns:sodipodi="http://sodipodi.sourceforge.net/DTD/sodipodi-0.dtd"
   xmlns="http://www.w3.org/2000/svg"
   xmlns:svg="http://www.w3.org/2000/svg"><sodipodi:namedview
     id="namedview7"
     pagecolor="#ffffff"
     bordercolor="#000000"
     borderopacity="0.25"
     inkscape:showpageshadow="2"
     inkscape:pageopacity="0.0"
     inkscape:pagecheckerboard="0"
     inkscape:deskcolor="#d1d1d1"
     inkscape:document-units="mm"
     showgrid="false"
     inkscape:zoom="1.0771772"
     inkscape:cx="176.38695"
     inkscape:cy="288.71759"
     inkscape:window-width="1920"
     inkscape:window-height="1009"
     inkscape:window-x="-8"
     inkscape:window-y="-8"
     inkscape:window-maximized="1"
     inkscape:current-layer="layer1" /><defs
     id="defs2" /><g
     inkscape:label="Layer 1"
     inkscape:groupmode="layer"
     id="layer1"
     transform="translate(-165.58084,-23.257936)"><g
       transform="matrix(0.004801,0,0,-0.004801,305.19032,-15.290055)"
       fill="#000000"
       stroke="none"
       id="g138"
       inkscape:label="logo"
       style="stroke:#000000"><g
         id="g2082"
         transform="matrix(55.110047,0,0,-55.110047,-29278.458,-7031.1029)"
         style="stroke:#000000"><path
           fill-rule="evenodd"
           clip-rule="evenodd"
           fill="url(#SVGID_1_)"
           d="m 9.491,109 c -1.62,0 -3.021,-0.638 -3.944,-1.798 -0.944,-1.185 -1.268,-2.814 -0.889,-4.47 L 22.492,24.821 C 23.239,21.557 26.376,19 29.634,19 H 118.5 c 1.62,0 3.021,0.638 3.945,1.798 0.944,1.184 1.268,2.814 0.889,4.47 L 105.5,103.179 c -0.747,3.264 -3.884,5.822 -7.143,5.822 H 9.491 Z"
           id="path2054"
           style="stroke:#000000" /><path
           fill-rule="evenodd"
           clip-rule="evenodd"
           fill="url(#SVGID_2_)"
           d="M 29.634,20 H 118.5 c 2.769,0 4.496,2.259 3.858,5.045 l -17.834,77.911 c -0.638,2.786 -3.399,5.045 -6.168,5.045 H 9.491 c -2.769,0 -4.496,-2.258 -3.858,-5.045 L 23.467,25.045 C 24.104,22.259 26.866,20 29.634,20 Z"
           id="path2061"
           style="fill:none;stroke:#000000;stroke-width:3.77953;stroke-dasharray:none" /><path
           fill-rule="evenodd"
           clip-rule="evenodd"
           fill="#2c5591"
           d="m 64.165,87.558 h 21.613 c 2.513,0 4.55,2.125 4.55,4.746 0,2.621 -2.037,4.747 -4.55,4.747 H 64.165 c -2.513,0 -4.55,-2.125 -4.55,-4.747 0,-2.621 2.037,-4.746 4.55,-4.746 z"
           id="path2063"
           style="fill:#1a1a1a;stroke:#000000" /><path
           fill-rule="evenodd"
           clip-rule="evenodd"
           fill="#2c5591"
           d="m 78.184,66.455 c -0.372,0.749 -1.144,1.575 -2.509,2.534 L 35.562,97.798 c -2.19,1.591 -5.334,1.001 -7.021,-1.319 -1.687,-2.32 -1.28,-5.49 0.91,-7.082 L 65.624,63.203 V 62.665 L 42.896,38.487 c -1.854,-1.972 -1.661,-5.161 0.431,-7.124 2.092,-1.962 5.29,-1.954 7.144,0.018 l 27.271,29.012 c 1.548,1.647 1.663,4.141 0.442,6.062 z"
           id="path2065"
           style="fill:#1a1a1a;stroke:#000000" /><path
           fill-rule="evenodd"
           clip-rule="evenodd"
           fill="#ffffff"
           d="m 77.184,65.455 c -0.372,0.749 -1.144,1.575 -2.509,2.534 L 34.562,96.798 c -2.19,1.591 -5.334,1.001 -7.021,-1.319 -1.687,-2.32 -1.28,-5.49 0.91,-7.082 L 64.624,62.203 V 61.665 L 41.896,37.487 c -1.854,-1.972 -1.661,-5.161 0.431,-7.124 2.092,-1.962 5.29,-1.954 7.144,0.018 l 27.271,29.012 c 1.548,1.647 1.663,4.141 0.442,6.062 z"
           id="path2067"
           style="fill:#000000;stroke:#000000" /><path
           fill-rule="evenodd"
           clip-rule="evenodd"
           fill="#ffffff"
           d="m 63.55,87 h 21.613 c 2.513,0 4.55,2.015 4.55,4.5 0,2.485 -2.037,4.5 -4.55,4.5 H 63.55 C 61.037,96 59,93.985 59,91.5 59,89.015 61.037,87 63.55,87 Z"
           id="path2069"
           style="fill:#000000;stroke:#000000" /></g></g></g></svg>
