<?xml version="1.0" encoding="UTF-8" standalone="no"?>
<!-- Created with Inkscape (http://www.inkscape.org/) -->

<svg
   width="54.907669mm"
   height="54.907669mm"
   viewBox="0 0 54.90767 54.907669"
   version="1.1"
   id="svg5"
   xml:space="preserve"
   inkscape:version="1.2.2 (732a01da63, 2022-12-09)"
   sodipodi:docname="windows.svg"
   xmlns:inkscape="http://www.inkscape.org/namespaces/inkscape"
   xmlns:sodipodi="http://sodipodi.sourceforge.net/DTD/sodipodi-0.dtd"
   xmlns:xlink="http://www.w3.org/1999/xlink"
   xmlns="http://www.w3.org/2000/svg"
   xmlns:svg="http://www.w3.org/2000/svg"><sodipodi:namedview
     id="namedview7"
     pagecolor="#ffffff"
     bordercolor="#000000"
     borderopacity="0.25"
     inkscape:showpageshadow="2"
     inkscape:pageopacity="0.0"
     inkscape:pagecheckerboard="0"
     inkscape:deskcolor="#d1d1d1"
     inkscape:document-units="mm"
     showgrid="false"
     inkscape:zoom="1.4770342"
     inkscape:cx="-91.737887"
     inkscape:cy="106.97112"
     inkscape:window-width="1920"
     inkscape:window-height="1009"
     inkscape:window-x="-8"
     inkscape:window-y="-8"
     inkscape:window-maximized="1"
     inkscape:current-layer="g1233" /><defs
     id="defs2" /><g
     inkscape:label="Layer 1"
     inkscape:groupmode="layer"
     id="layer1"
     transform="translate(221.43693,-103.60698)"><g
       id="g144"
       transform="matrix(0.26458333,0,0,0.26458333,-188.52626,63.749181)"><g
         id="g1233"
         transform="translate(-722.85022,92.076388)"><g
           style="fill:#0d0d0d;fill-opacity:1;fill-rule:evenodd;stroke:#000000;stroke-linecap:round;stroke-linejoin:round"
           id="g3427"
           transform="matrix(2.5945067,0,0,2.5945067,616.60723,57.252281)"><use
             xlink:href="#A"
             x="0.5"
             y="0.5"
             id="use3413"
             style="fill:#0d0d0d;fill-opacity:1" /><symbol
             id="A"
             overflow="visible"
             style="fill:#0d0d0d;fill-opacity:1"><path
               d="M 18.299,60.185 V 40.567 l 22.32,-3.303 V 3.894 C 40.619,1.75 38.789,0 36.547,0 H 4.072 C 1.83,0 0,1.75 0,3.894 V 79.606 H 33.686 L 18.248,77.462 V 71.843 H 6.057 V 67.949 H 18.248 V 64.055 H 6.057 V 60.16 Z M 6.108,11.657 h 28.428 v 3.894 H 6.108 Z M 40.619,58.065 H 65 V 38.25 l -24.381,3.105 z m -2.011,0.001 V 41.553 l -16.237,2.144 v 14.368 h 16.237 z m 0,2.119 H 22.371 V 74.159 L 38.608,76.5 Z m 2.011,0 V 76.698 L 65,80 V 60.185 Z"
               fill="#00188f"
               stroke="none"
               id="path3415"
               style="fill:#0d0d0d;fill-opacity:1" /></symbol></g></g></g></g></svg>
